<svg xmlns="http://www.w3.org/2000/svg" xmlns:xlink="http://www.w3.org/1999/xlink" width="500" zoomAndPan="magnify" viewBox="0 0 375 374.999991" height="500" preserveAspectRatio="xMidYMid meet" version="1.0"><defs><clipPath id="220a1b41dc"><path d="M 29.199219 37.5 L 345.699219 37.5 L 345.699219 312 L 29.199219 312 Z M 29.199219 37.5 " clip-rule="nonzero"/></clipPath><clipPath id="c4158e3c31"><path d="M 93.90625 37.457031 L 299.40625 37.457031 L 299.40625 148.457031 L 93.90625 148.457031 Z M 93.90625 37.457031 " clip-rule="nonzero"/></clipPath><clipPath id="84af579696"><path d="M 29.199219 245.117188 L 131.949219 245.117188 L 131.949219 311.867188 L 29.199219 311.867188 Z M 29.199219 245.117188 " clip-rule="nonzero"/></clipPath><clipPath id="fb1c601174"><path d="M 230.46875 245.578125 L 345.21875 245.578125 L 345.21875 312 L 230.46875 312 Z M 230.46875 245.578125 " clip-rule="nonzero"/></clipPath></defs><g clip-path="url(#220a1b41dc)"><path fill="#006ba6" d="M 68.15625 245.355469 L 29.199219 311.90625 L 55.171875 311.90625 L 68.15625 289.179688 L 92.5 245.355469 L 105.484375 222.632812 L 157.425781 222.632812 L 170.410156 199.910156 L 186.640625 170.691406 L 199.625 147.96875 L 186.640625 126.867188 L 173.65625 104.144531 L 162.292969 81.417969 L 149.308594 104.144531 L 108.730469 173.9375 L 92.5 199.910156 L 79.515625 222.632812 Z M 267.792969 311.90625 L 345.699219 311.90625 L 332.714844 289.179688 L 230.460938 289.179688 L 217.476562 266.457031 L 206.117188 246.980469 L 204.492188 245.355469 L 118.46875 245.355469 L 105.484375 266.457031 L 92.5 289.179688 L 79.515625 311.90625 Z M 204.492188 289.179688 L 118.46875 289.179688 L 131.453125 266.457031 L 191.507812 266.457031 Z M 225.59375 104.144531 L 186.640625 37.59375 L 173.65625 60.320312 L 186.640625 81.417969 L 212.609375 126.867188 L 225.59375 147.96875 L 212.609375 170.691406 L 201.246094 190.167969 L 199.625 193.417969 L 212.609375 214.515625 L 230.460938 245.355469 L 243.445312 266.457031 L 319.730469 266.457031 L 306.746094 245.355469 L 266.171875 173.9375 L 251.5625 147.96875 L 238.578125 126.867188 Z M 238.578125 170.691406 L 280.777344 245.355469 L 254.808594 245.355469 L 225.59375 193.417969 Z M 118.46875 199.910156 L 162.292969 126.867188 L 173.65625 147.96875 L 144.4375 199.910156 Z M 118.46875 199.910156 " fill-opacity="1" fill-rule="evenodd"/></g><g clip-path="url(#c4158e3c31)"><path fill="#00b5e2" d="M 68.113281 245.316406 L 29.160156 311.863281 L 55.128906 311.863281 L 68.113281 289.140625 L 92.460938 245.316406 L 105.445312 222.589844 L 157.382812 222.589844 L 170.367188 199.867188 L 186.597656 170.652344 L 199.582031 147.925781 L 186.597656 126.824219 L 173.613281 104.101562 L 162.25 81.378906 L 149.265625 104.101562 L 108.691406 173.898438 L 92.460938 199.867188 L 79.476562 222.589844 Z M 267.75 311.863281 L 345.660156 311.863281 L 332.675781 289.140625 L 230.421875 289.140625 L 217.4375 266.417969 L 206.074219 246.9375 L 204.453125 245.316406 L 118.429688 245.316406 L 105.445312 266.417969 L 79.476562 311.863281 Z M 204.453125 289.140625 L 118.429688 289.140625 L 131.414062 266.417969 L 191.46875 266.417969 Z M 225.550781 104.101562 L 186.597656 37.554688 L 173.613281 60.277344 L 186.597656 81.378906 L 212.566406 126.824219 L 225.550781 147.925781 L 212.566406 170.652344 L 201.207031 190.128906 L 199.582031 193.375 L 212.566406 214.476562 L 230.421875 245.316406 L 243.40625 266.417969 L 319.691406 266.417969 L 306.707031 245.316406 L 266.128906 173.898438 L 251.519531 147.925781 L 238.535156 126.824219 Z M 238.535156 170.652344 L 280.738281 245.316406 L 254.765625 245.316406 L 225.550781 193.375 Z M 118.429688 199.867188 L 162.25 126.824219 L 173.613281 147.925781 L 144.398438 199.867188 Z M 118.429688 199.867188 " fill-opacity="1" fill-rule="evenodd"/></g><g clip-path="url(#84af579696)"><path fill="#00b5e2" d="M 68.15625 245.355469 L 29.199219 311.90625 L 55.171875 311.90625 L 68.15625 289.179688 L 92.5 245.355469 L 105.484375 222.632812 L 157.425781 222.632812 L 170.410156 199.910156 L 186.640625 170.691406 L 199.625 147.96875 L 186.640625 126.867188 L 173.65625 104.144531 L 162.292969 81.417969 L 149.308594 104.144531 L 108.730469 173.9375 L 92.5 199.910156 L 79.515625 222.632812 Z M 267.792969 311.90625 L 345.699219 311.90625 L 332.714844 289.179688 L 230.460938 289.179688 L 217.476562 266.457031 L 206.117188 246.980469 L 204.492188 245.355469 L 118.46875 245.355469 L 105.484375 266.457031 L 92.5 289.179688 L 79.515625 311.90625 Z M 204.492188 289.179688 L 118.46875 289.179688 L 131.453125 266.457031 L 191.507812 266.457031 Z M 225.59375 104.144531 L 186.640625 37.59375 L 173.65625 60.320312 L 186.640625 81.417969 L 212.609375 126.867188 L 225.59375 147.96875 L 212.609375 170.691406 L 201.246094 190.167969 L 199.625 193.417969 L 212.609375 214.515625 L 230.460938 245.355469 L 243.445312 266.457031 L 319.730469 266.457031 L 306.746094 245.355469 L 266.171875 173.9375 L 251.5625 147.96875 L 238.578125 126.867188 Z M 238.578125 170.691406 L 280.777344 245.355469 L 254.808594 245.355469 L 225.59375 193.417969 Z M 118.46875 199.910156 L 162.292969 126.867188 L 173.65625 147.96875 L 144.4375 199.910156 Z M 118.46875 199.910156 " fill-opacity="1" fill-rule="evenodd"/></g><g clip-path="url(#fb1c601174)"><path fill="#00b5e2" d="M 68.15625 245.355469 L 29.199219 311.90625 L 55.171875 311.90625 L 68.15625 289.179688 L 92.5 245.355469 L 105.484375 222.632812 L 157.425781 222.632812 L 170.410156 199.910156 L 186.640625 170.691406 L 199.625 147.96875 L 186.640625 126.867188 L 173.65625 104.144531 L 162.292969 81.417969 L 149.308594 104.144531 L 108.730469 173.9375 L 92.5 199.910156 L 79.515625 222.632812 Z M 267.792969 311.90625 L 345.699219 311.90625 L 332.714844 289.179688 L 230.460938 289.179688 L 217.476562 266.457031 L 206.117188 246.980469 L 204.492188 245.355469 L 118.46875 245.355469 L 105.484375 266.457031 L 92.5 289.179688 L 79.515625 311.90625 Z M 204.492188 289.179688 L 118.46875 289.179688 L 131.453125 266.457031 L 191.507812 266.457031 Z M 225.59375 104.144531 L 186.640625 37.59375 L 173.65625 60.320312 L 186.640625 81.417969 L 212.609375 126.867188 L 225.59375 147.96875 L 212.609375 170.691406 L 201.246094 190.167969 L 199.625 193.417969 L 212.609375 214.515625 L 230.460938 245.355469 L 243.445312 266.457031 L 319.730469 266.457031 L 306.746094 245.355469 L 266.171875 173.9375 L 251.5625 147.96875 L 238.578125 126.867188 Z M 238.578125 170.691406 L 280.777344 245.355469 L 254.808594 245.355469 L 225.59375 193.417969 Z M 118.46875 199.910156 L 162.292969 126.867188 L 173.65625 147.96875 L 144.4375 199.910156 Z M 118.46875 199.910156 " fill-opacity="1" fill-rule="evenodd"/></g></svg>